<svg xmlns="http://www.w3.org/2000/svg" xmlns:xlink="http://www.w3.org/1999/xlink" width="500" zoomAndPan="magnify" viewBox="0 0 375 374.999991" height="500" preserveAspectRatio="xMidYMid meet" version="1.0"><defs><g/></defs><g fill="#3d5d3d" fill-opacity="1"><g transform="translate(73.016748, 205.124987)"><g><path d="M 15.953125 0.46875 C 13.210938 0.46875 10.84375 -0.15625 8.84375 -1.40625 C 6.84375 -2.65625 5.296875 -4.539062 4.203125 -7.0625 C 3.117188 -9.582031 2.578125 -12.703125 2.578125 -16.421875 C 2.578125 -20.160156 3.226562 -23.289062 4.53125 -25.8125 C 5.832031 -28.34375 7.640625 -30.222656 9.953125 -31.453125 C 12.273438 -32.691406 14.960938 -33.3125 18.015625 -33.3125 C 21.160156 -33.3125 23.835938 -32.726562 26.046875 -31.5625 C 28.265625 -30.394531 29.828125 -28.65625 30.734375 -26.34375 L 25.984375 -23.46875 L 25.421875 -23.5 C 24.753906 -24.96875 23.804688 -26.035156 22.578125 -26.703125 C 21.359375 -27.378906 19.835938 -27.71875 18.015625 -27.71875 C 15.179688 -27.71875 13.015625 -26.820312 11.515625 -25.03125 C 10.023438 -23.238281 9.28125 -20.367188 9.28125 -16.421875 C 9.28125 -12.453125 9.976562 -9.566406 11.375 -7.765625 C 12.78125 -5.972656 14.851562 -5.078125 17.59375 -5.078125 C 19.957031 -5.078125 21.695312 -5.609375 22.8125 -6.671875 C 23.9375 -7.734375 24.5 -9.320312 24.5 -11.4375 L 24.5 -12.84375 L 16.734375 -12.84375 L 16.734375 -18.125 L 30.953125 -18.125 L 30.953125 0 L 24.75 0 L 24.75 -4.40625 L 24.28125 -4.46875 C 23.601562 -2.894531 22.578125 -1.675781 21.203125 -0.8125 C 19.835938 0.0390625 18.085938 0.46875 15.953125 0.46875 Z M 15.953125 0.46875 "/></g></g></g><g fill="#3d5d3d" fill-opacity="1"><g transform="translate(107.266773, 205.124987)"><g><path d="M 10.765625 -14.421875 L 10.765625 -5.4375 L 26.4375 -5.4375 L 26.4375 0 L 4.265625 0 L 4.265625 -32.84375 L 26.078125 -32.84375 L 26.078125 -27.40625 L 10.765625 -27.40625 L 10.765625 -19.71875 L 24.140625 -19.71875 L 24.140625 -14.421875 Z M 10.765625 -14.421875 "/></g></g></g><g fill="#3d5d3d" fill-opacity="1"><g transform="translate(135.497777, 205.124987)"><g><path d="M 10.5625 0 L 4.265625 0 L 4.265625 -32.84375 L 11.703125 -32.84375 L 24.890625 -11.6875 L 25.46875 -11.765625 L 25.46875 -32.84375 L 31.71875 -32.84375 L 31.71875 0 L 25.0625 0 L 11.125 -22.59375 L 10.5625 -22.5 Z M 10.5625 0 "/></g></g></g><g fill="#9ba1a0" fill-opacity="1"><g transform="translate(171.501117, 205.124987)"><g><path d="M 4.265625 0 L 4.265625 -32.84375 L 18.28125 -32.84375 C 20.300781 -32.84375 22.007812 -32.519531 23.40625 -31.875 C 24.8125 -31.238281 25.875 -30.332031 26.59375 -29.15625 C 27.3125 -27.988281 27.671875 -26.601562 27.671875 -25 C 27.671875 -23.550781 27.316406 -22.269531 26.609375 -21.15625 C 25.910156 -20.050781 24.898438 -19.160156 23.578125 -18.484375 L 23.578125 -18.015625 C 25.648438 -17.472656 27.242188 -16.488281 28.359375 -15.0625 C 29.484375 -13.644531 30.046875 -11.90625 30.046875 -9.84375 C 30.046875 -6.695312 29.097656 -4.269531 27.203125 -2.5625 C 25.316406 -0.851562 22.507812 0 18.78125 0 Z M 16.9375 -19.75 C 19.957031 -19.75 21.46875 -21.109375 21.46875 -23.828125 C 21.46875 -25.222656 21.09375 -26.257812 20.34375 -26.9375 C 19.601562 -27.625 18.46875 -27.96875 16.9375 -27.96875 L 10.765625 -27.96875 L 10.765625 -19.75 Z M 18.125 -5.140625 C 21.707031 -5.140625 23.5 -6.765625 23.5 -10.015625 C 23.5 -13.285156 21.707031 -14.921875 18.125 -14.921875 L 10.765625 -14.921875 L 10.765625 -5.140625 Z M 18.125 -5.140625 "/></g></g></g><g fill="#9ba1a0" fill-opacity="1"><g transform="translate(203.617528, 205.124987)"><g><path d="M 31.515625 0 L 24.6875 0 L 22.21875 -7.5625 L 9.640625 -7.5625 L 7.171875 0 L 0.5 0 L 11.84375 -32.84375 L 20.171875 -32.84375 Z M 15.609375 -25.984375 L 11.390625 -13.03125 L 20.421875 -13.03125 L 16.171875 -25.984375 Z M 15.609375 -25.984375 "/></g></g></g><g fill="#9ba1a0" fill-opacity="1"><g transform="translate(235.62165, 205.124987)"><g><path d="M 10.5625 0 L 4.265625 0 L 4.265625 -32.84375 L 11.703125 -32.84375 L 24.890625 -11.6875 L 25.46875 -11.765625 L 25.46875 -32.84375 L 31.71875 -32.84375 L 31.71875 0 L 25.0625 0 L 11.125 -22.59375 L 10.5625 -22.5 Z M 10.5625 0 "/></g></g></g><g fill="#9ba1a0" fill-opacity="1"><g transform="translate(271.623478, 205.124987)"><g><path d="M 4.265625 0 L 4.265625 -32.84375 L 10.765625 -32.84375 L 10.765625 -19.421875 L 11.484375 -19.421875 L 22.4375 -32.84375 L 29.09375 -32.84375 L 29.09375 -32.28125 L 17 -17.34375 L 30.34375 -0.5625 L 30.34375 0 L 23 0 L 11.484375 -14.171875 L 10.765625 -14.171875 L 10.765625 0 Z M 4.265625 0 "/></g></g></g></svg>